<svg xmlns="http://www.w3.org/2000/svg" width="64" height="64" viewBox="0 0 64 64" fill="none">
	<rect width="64" height="64" rx="16" fill="#0b1220"/>
	<path d="M32 9L48 15V27.5C48 38.9 40.7 48.8 32 54.5C23.3 48.8 16 38.9 16 27.5V15L32 9Z" fill="#22d3ee"/>
	<path d="M32 16L41.5 19.4V27.5C41.5 35.2 36.8 42.4 32 46.4C27.2 42.4 22.5 35.2 22.5 27.5V19.4L32 16Z" fill="#dbeafe"/>
	<circle cx="32" cy="31" r="7.2" fill="#0b1220"/>
	<circle cx="32" cy="31" r="4" fill="#22d3ee"/>
	<path d="M32 24.2V21.2" stroke="#0b1220" stroke-width="3.2" stroke-linecap="round"/>
	<path d="M25 47.8C27.2 49.3 29.5 50.1 32 50.1C34.5 50.1 36.8 49.3 39 47.8" stroke="#22d3ee" stroke-width="3.1" stroke-linecap="round"/>
	<path d="M21 42.8C25.7 46.8 29.3 48.7 32 49.2C34.7 48.7 38.3 46.8 43 42.8" stroke="#7dd3fc" stroke-width="1.8" stroke-linecap="round" opacity="0.9"/>
</svg>